Coordinates
version=1
nRows=8
nColumns=42
inDegrees=yes

Units are S.I. units (second, meters, Newtons, ...)
If the header above contains a line with 'inDegrees', this indicates whether rotational values are in degrees (yes) or radians (no).

endheader
time	pelvis_tilt	pelvis_list	pelvis_rotation	pelvis_tx	pelvis_ty	pelvis_tz	hip_flexion_r	hip_adduction_r	hip_rotation_r	knee_angle_r	knee_adduction_r	knee_angle_r_beta	ankle_angle_r	subtalar_angle_r	mtp_angle_r	hip_flexion_l	hip_adduction_l	hip_rotation_l	knee_angle_l	knee_adduction_l	knee_angle_l_beta	ankle_angle_l	subtalar_angle_l	mtp_angle_l	lumbar_extension	lumbar_bending	lumbar_rotation	arm_flex_r	arm_add_r	arm_rot_r	elbow_flex_r	pro_sup_r	wrist_flex_r	wrist_dev_r	arm_flex_l	arm_add_l	arm_rot_l	elbow_flex_l	pro_sup_l	wrist_flex_l	wrist_dev_l
      1.71000000	     -4.29159341	     -1.85521922	     -1.37748769	      0.70168507	      0.88746640	     -0.25137288	     18.36821783	     -4.58557527	     -2.24213269	     57.90436614	      9.78576305	      1.01062184	      8.81970506	     -8.77773349	     -7.51625430	     11.05249442	     -9.64763080	     -3.13698613	     15.43749279	     19.99394863	      0.26943508	      9.37723113	      2.64690415	     -7.51625430	    -12.58936289	      2.38794455	     -1.09878325	     -6.59386632	    -15.80912915	     -7.35371732	     22.07996995	     90.00000001	      0.00000000	      0.00000000	     -3.08534609	    -14.60266281	     -3.20831017	     32.62352294	     90.00000001	      0.00000000	      0.00000000
      1.72000000	     -4.21947204	     -1.92318260	     -1.02185418	      0.71226458	      0.88797914	     -0.25154964	     19.43788199	     -4.49562571	     -2.69015958	     56.63935926	      9.70436759	      0.98854331	      9.38875788	     -9.31181105	     -7.51591664	     10.01634184	     -9.55192823	     -2.98748856	     14.93872497	     19.81224678	      0.26072994	      9.88362243	      3.00294267	     -7.51591664	    -12.52803106	      2.56901614	     -1.41546978	     -7.04006715	    -15.67714204	     -7.57243861	     22.00310006	     90.00000001	      0.00000000	      0.00000000	     -2.61478885	    -14.99123691	     -3.04951418	     33.47896854	     90.00000001	      0.00000000	      0.00000000
      1.73000000	     -4.09724856	     -1.96240412	     -0.63283729	      0.72283886	      0.88836682	     -0.25163231	     20.35716681	     -4.44717038	     -2.84621416	     55.08717528	      9.89978129	      0.96145258	      9.33261194	    -10.71435166	     -7.51501665	      8.84915735	     -9.50658238	     -2.55876693	     14.19442974	     19.85342466	      0.24773953	     10.36920255	      3.15148281	     -7.51501665	    -12.53455449	      2.69572272	     -1.79253610	     -7.38593381	    -15.41108670	     -8.40478007	     21.80950844	     90.00000001	      0.00000000	      0.00000000	     -2.46798200	    -15.57699335	     -2.42362456	     35.04600896	     90.00000001	      0.00000000	      0.00000000
      1.74000000	     -3.98900268	     -2.01745307	     -0.27666270	      0.73344187	      0.88854088	     -0.25166302	     21.22784081	     -4.38036931	     -3.24497743	     53.31235859	      9.88519720	      0.93047619	      9.52052730	    -11.70060356	     -7.51424795	      7.72267783	     -9.47587137	     -2.22630110	     13.54866338	     19.81617347	      0.23646879	     10.85323039	      3.34762739	     -7.51424795	    -12.49918210	      2.84856309	     -2.12697668	     -7.77672386	    -15.23534970	     -8.95331595	     21.73053849	     90.00000001	      0.00000000	      0.00000000	     -2.04734191	    -16.02758857	     -2.14241401	     35.94532107	     90.00000001	      0.00000000	      0.00000000
      1.75000000	     -3.90769622	     -2.06104733	      0.06973923	      0.74402827	      0.88849378	     -0.25164135	     22.04176644	     -4.33827744	     -3.60873586	     51.30313877	      9.92534950	      0.89540869	      9.59365771	    -12.77686242	     -7.51319856	      6.63576476	     -9.47571815	     -1.92438122	     12.93802736	     19.81833734	      0.22581118	     11.25601035	      3.38249212	     -7.51319856	    -12.44340840	      2.98447291	     -2.42962431	     -8.13625136	    -15.00767860	     -9.62617392	     21.65465251	     90.00000001	      0.00000000	      0.00000000	     -1.65214080	    -16.46972188	     -1.79085486	     36.98156166	     90.00000001	      0.00000000	      0.00000000
      1.76000000	     -3.78915485	     -2.11253922	      0.41577416	      0.75462961	      0.88825051	     -0.25156998	     22.73553533	     -4.28449981	     -4.27194650	     49.08391274	      9.71964116	      0.85667589	      9.83408785	    -13.06067067	     -7.51289305	      5.55562852	     -9.52472978	     -1.75228923	     12.47049653	     19.83836357	      0.21765122	     11.78515736	      3.77269776	     -7.51289305	    -12.41719532	      3.13260208	     -2.71532117	     -8.57399561	    -14.90177171	     -9.78686489	     21.64269325	     90.00000001	      0.00000000	      0.00000000	     -1.13565163	    -16.83645332	     -1.72024439	     37.66111521	     90.00000001	      0.00000000	      0.00000000
      1.77000000	     -3.66608911	     -2.15332133	      0.73168579	      0.76525534	      0.88780950	     -0.25139642	     23.32748737	     -4.23729704	     -4.82155573	     46.62510288	      9.59734783	      0.81376156	      9.81620506	    -13.40592723	     -7.51257469	      4.44484926	     -9.59362050	     -1.52827945	     11.94058955	     19.89734394	      0.20840260	     12.34131500	      4.16693453	     -7.51257469	    -12.39958122	      3.25813698	     -2.98314283	     -8.96893937	    -14.75349728	    -10.03400582	     21.64893787	     90.00000001	      0.00000000	      0.00000000	     -0.71173710	    -17.24139514	     -1.53807571	     38.55053894	     90.00000001	      0.00000000	      0.00000000
      1.78000000	     -3.73613582	     -2.00909949	      0.99527318	      0.77566902	      0.88693655	     -0.25129124	     24.15661966	     -4.41376361	     -5.46443291	     44.14973420	      9.35045524	      0.77055823	      9.75884013	    -13.31355187	     -7.51238790	      3.67230376	     -9.35674646	     -1.59878883	     11.74267245	     19.67670577	      0.20494830	     12.66516495	      4.33885462	     -7.51238790	    -12.18363798	      3.17423090	     -3.19851288	     -9.38284502	    -14.64104423	    -10.15566718	     21.68569393	     90.00000001	      0.00000000	      0.00000000	     -0.18269346	    -17.59938741	     -1.47122323	     39.18330759	     90.00000001	      0.00000000	      0.00000000
